<?xml version="1.0" encoding="UTF-8"?>
<!DOCTYPE svg PUBLIC "-//W3C//DTD SVG 1.0//EN" "http://www.w3.org/TR/2001/REC-SVG-20010904/DTD/svg10.dtd">
<!-- Creator: CorelDRAW 2020 (64 Bit) -->
<svg xmlns="http://www.w3.org/2000/svg" xml:space="preserve" width="463px" height="228px" version="1.0" style="shape-rendering:geometricPrecision; text-rendering:geometricPrecision; image-rendering:optimizeQuality; fill-rule:evenodd; clip-rule:evenodd"
viewBox="0 0 243.46 119.81"
 xmlns:xlink="http://www.w3.org/1999/xlink"
 xmlns:xodm="http://www.corel.com/coreldraw/odm/2003">
 <defs>
  <style type="text/css">
   <![CDATA[
    .str0 {stroke:#FCC102;stroke-width:0.47;stroke-miterlimit:22.9256}
    .fil0 {fill:#FCC102}
    .fil2 {fill:#FCC102;fill-rule:nonzero}
    .fil1 {fill:white;fill-rule:nonzero}
   ]]>
  </style>
 </defs>
 <g id="Camada_x0020_1">
  <metadata id="CorelCorpID_0Corel-Layer"/>
  <g id="_1975261642864">
   <g>
    <rect class="fil0 str0" x="7.5" y="38.64" width="8.88" height="46.74"/>
    <polygon class="fil0 str0" points="73.61,41.83 44.07,11.94 13.26,42.83 0.58,42.88 43.28,0.33 84.6,41.83 "/>
    <rect class="fil0 str0" x="7.58" y="14.66" width="7.73" height="23.14"/>
   </g>
   <path class="fil1" d="M139.96 54.85l-0.24 0.28c-4.12,-0.11 -6.6,-0.17 -7.45,-0.17 -3.41,0 -6.58,0.06 -9.51,0.17l-0.25 -0.28 0 -1.75 0.28 -0.31 2.42 -0.14c1.01,-0.05 1.52,-0.41 1.52,-1.08 0,-0.39 -0.25,-1.26 -0.77,-2.62l-2.25 -5.86c-2.57,-0.04 -5.17,-0.06 -7.85,-0.06 -1.44,0 -3.59,0.02 -6.44,0.06l-1.23 3.39c-0.93,2.58 -1.39,4.19 -1.39,4.83 0,0.71 0.43,1.12 1.31,1.26 0.48,0.07 1.42,0.15 2.83,0.22l0.28 0.28 0 1.78 -0.28 0.28c-3.42,-0.11 -5.63,-0.17 -6.61,-0.17 -0.76,0 -2.65,0.06 -5.65,0.17l-0.27 -0.26 0 -1.8 0.3 -0.28c1.91,-0.11 3.09,-0.49 3.51,-1.14 0.44,-0.65 2.08,-4.51 4.92,-11.59l7.25 -18.15c0.54,-1.42 1.36,-3.54 2.45,-6.37l3.94 0 14.74 34.66c0.57,1.32 1.09,2.06 1.56,2.23 0.61,0.22 1.49,0.34 2.64,0.34l0.24 0.3 0 1.78zm-17.62 -14.96l-5.95 -14.57 -5.69 14.57c1.51,0.06 3.49,0.08 5.92,0.08 2.35,0 4.26,-0.02 5.72,-0.08z"/>
   <path id="1" class="fil1" d="M158.71 54.87l-0.28 0.29c-1.76,-0.13 -4.3,-0.2 -7.62,-0.2 -3.32,0 -5.85,0.07 -7.59,0.2l-0.28 -0.29 0 -1.69 0.28 -0.28c1.78,-0.06 2.88,-0.19 3.31,-0.42 0.37,-0.16 0.57,-0.61 0.61,-1.33 0.13,-2.41 0.2,-6.63 0.2,-12.65l0 -9.32c0,-3.89 -0.07,-7.04 -0.2,-9.45 -0.04,-0.68 -0.24,-1.14 -0.61,-1.35 -0.37,-0.2 -1.44,-0.35 -3.23,-0.4l-0.27 -0.31 0 -1.52 0.27 -0.31c3.58,-0.39 7.17,-1.16 10.77,-2.3l0.57 0.33c0,0.5 -0.02,1.41 -0.07,2.75 -0.19,4.43 -0.29,9.33 -0.29,14.71l0 7.17c0,6.02 0.07,10.24 0.2,12.65 0.04,0.72 0.24,1.17 0.61,1.33 0.43,0.23 1.53,0.36 3.31,0.42l0.31 0.28 0 1.69z"/>
   <path id="2" class="fil1" d="M186.76 39.36c0,0.32 -0.01,0.79 -0.03,1.42l-0.3 0.39c-2.45,0.66 -5.7,1 -9.73,1 -0.73,0 -1.82,0.02 -3.28,0.04 -1.47,0.03 -2.58,0.04 -3.32,0.04 0.12,2.73 0.96,4.97 2.54,6.76 1.65,1.91 3.79,2.86 6.44,2.86 1.79,0 3.9,-0.61 6.34,-1.84l0.67 0.81 -1.22 2.75c-2.7,1.73 -5.65,2.59 -8.82,2.59 -4.16,0 -7.41,-1.17 -9.71,-3.53 -2.31,-2.35 -3.47,-5.71 -3.47,-10.07 0,-5.17 1.24,-8.71 3.7,-10.62 3.42,-2.62 6.65,-3.94 9.71,-3.94 3.31,0 5.89,0.96 7.7,2.86 1.85,1.97 2.78,4.8 2.78,8.48zm-7.26 -0.72c0,-5.01 -1.56,-7.51 -4.67,-7.51 -3.27,0 -4.92,2.49 -4.92,7.45l0 0.62c1.08,0.16 2.98,0.24 5.73,0.24 1.43,0 2.7,-0.08 3.84,-0.24 0.01,-0.26 0.02,-0.45 0.02,-0.56zm4.5 -14.82l-0.09 0.28 -2.13 0 -6.49 -6.7 -6.48 6.7 -2.13 0 -0.09 -0.28 6.26 -10.07 4.89 0 6.26 10.07z"/>
   <path class="fil2" d="M50.75 49.89l-0.3 2.69c-0.07,0.6 -0.14,1.38 -0.21,2.36l-0.15 1.88 -0.23 0.26 -1.37 0 -0.23 -0.23c-0.03,-2.13 -0.16,-3.34 -0.38,-3.63 -0.36,-0.49 -2.56,-0.74 -6.59,-0.74 -0.64,0 -1.66,0.05 -3.04,0.14 -0.17,1.61 -0.26,4.49 -0.26,8.64l0 3.18 2.67 0.07c0.8,0.02 2.28,-0.01 4.46,-0.09 0.42,-0.02 0.71,-0.13 0.84,-0.36 0.24,-0.37 0.38,-1.41 0.43,-3.1l0.23 -0.25 1.47 0 0.23 0.25c-0.05,1.75 -0.09,3.37 -0.09,4.83 0,1.59 0.04,3.32 0.09,5.22l-0.23 0.2 -1.58 0 -0.24 -0.23c0,-1.65 -0.07,-2.62 -0.21,-2.91 -0.27,-0.54 -1.08,-0.87 -2.43,-0.99 -0.93,-0.07 -1.84,-0.11 -2.74,-0.11 -1.08,0 -2.04,0.03 -2.9,0.07l0 5.62c0,3.72 0.11,6.16 0.31,7.31 0.08,0.46 0.34,0.75 0.8,0.87 0.11,0.03 1.23,0.11 3.38,0.24l0.23 0.23 0 1.58 -0.26 0.24 -9.48 -0.14c-1.36,-0.02 -3.22,0.03 -5.62,0.14l-0.23 -0.21 0 -1.61 0.23 -0.23c1.61,-0.1 2.52,-0.18 2.77,-0.24 0.45,-0.12 0.71,-0.41 0.79,-0.87 0.21,-1.15 0.31,-3.59 0.31,-7.31l0 -12.49c0,-3.72 -0.1,-6.16 -0.31,-7.31 -0.08,-0.46 -0.34,-0.75 -0.79,-0.87 -0.25,-0.06 -1.16,-0.14 -2.77,-0.24l-0.23 -0.23 0 -1.6 0.23 -0.22c1.51,0.09 3.93,0.14 7.27,0.14 2.16,0 7.45,-0.05 15.9,-0.14l0.23 0.19z"/>
   <path id="1" class="fil2" d="M75.01 69.75c0,0.27 -0.01,0.67 -0.02,1.21l-0.26 0.33c-2.08,0.56 -4.83,0.84 -8.26,0.84 -0.62,0 -1.54,0.02 -2.78,0.04 -1.24,0.03 -2.18,0.04 -2.81,0.04 0.09,2.31 0.81,4.21 2.15,5.73 1.4,1.62 3.22,2.43 5.46,2.43 1.52,0 3.31,-0.52 5.38,-1.56l0.58 0.68 -1.04 2.34c-2.3,1.46 -4.79,2.2 -7.48,2.2 -3.54,0 -6.29,-1 -8.25,-3 -1.96,-2 -2.94,-4.85 -2.94,-8.54 0,-4.39 1.05,-7.4 3.14,-9.01 2.9,-2.23 5.64,-3.35 8.24,-3.35 2.81,0 4.99,0.81 6.53,2.43 1.57,1.67 2.36,4.06 2.36,7.19zm-6.16 -0.61c0,-4.25 -1.32,-6.37 -3.96,-6.37 -2.78,0 -4.17,2.11 -4.17,6.32l0 0.52c0.91,0.14 2.52,0.21 4.85,0.21 1.22,0 2.3,-0.07 3.26,-0.21 0.01,-0.22 0.02,-0.38 0.02,-0.47z"/>
   <path id="2" class="fil2" d="M95.46 60.2l-0.16 4.19c-0.01,0.7 -0.05,1.49 -0.09,2.36l-0.99 0.31c-0.75,-1.06 -1.77,-1.6 -3.07,-1.6 -1.19,0 -2.16,0.47 -2.93,1.41 -0.47,0.58 -0.7,1.45 -0.7,2.57l0 5.53c0,1.14 0.05,2.74 0.16,4.79 0.03,0.58 0.2,0.96 0.5,1.13 0.29,0.17 1.39,0.29 3.27,0.35l0.24 0.22 0 1.43 -0.24 0.24c-2.31,-0.09 -4.6,-0.14 -6.88,-0.14 -2.82,0 -4.97,0.05 -6.44,0.17l-0.24 -0.24 0 -1.45 0.24 -0.23c1.5,-0.05 2.44,-0.16 2.8,-0.35 0.32,-0.14 0.49,-0.52 0.52,-1.13 0.11,-2.05 0.16,-4.25 0.16,-6.59l0 -3.37c0,-3.14 -0.11,-4.95 -0.35,-5.43 -0.15,-0.31 -0.49,-0.51 -1.01,-0.59 -0.19,-0.03 -0.88,-0.07 -2.05,-0.11l-0.24 -0.24 0 -1.32 0.24 -0.26c2.82,-0.27 5.8,-0.92 8.94,-1.96l0.51 0.31 -0.04 4.62c0.98,-1.13 2.15,-2.46 3.54,-3.96 0.64,-0.63 1.52,-0.94 2.64,-0.94 0.66,0 1.22,0.09 1.67,0.28z"/>
   <path id="3" class="fil2" d="M114.27 60.2l-0.16 4.19c-0.02,0.7 -0.05,1.49 -0.1,2.36l-0.99 0.31c-0.74,-1.06 -1.77,-1.6 -3.07,-1.6 -1.18,0 -2.16,0.47 -2.92,1.41 -0.48,0.58 -0.71,1.45 -0.71,2.57l0 5.53c0,1.14 0.05,2.74 0.16,4.79 0.03,0.58 0.2,0.96 0.5,1.13 0.3,0.17 1.39,0.29 3.28,0.35l0.23 0.22 0 1.43 -0.23 0.24c-2.32,-0.09 -4.61,-0.14 -6.89,-0.14 -2.82,0 -4.97,0.05 -6.44,0.17l-0.23 -0.24 0 -1.45 0.23 -0.23c1.5,-0.05 2.45,-0.16 2.8,-0.35 0.32,-0.14 0.49,-0.52 0.52,-1.13 0.12,-2.05 0.17,-4.25 0.17,-6.59l0 -3.37c0,-3.14 -0.12,-4.95 -0.36,-5.43 -0.15,-0.31 -0.49,-0.51 -1.01,-0.59 -0.19,-0.03 -0.87,-0.07 -2.05,-0.11l-0.24 -0.24 0 -1.32 0.24 -0.26c2.83,-0.27 5.81,-0.92 8.94,-1.96l0.52 0.31 -0.05 4.62c0.98,-1.13 2.15,-2.46 3.54,-3.96 0.64,-0.63 1.52,-0.94 2.64,-0.94 0.66,0 1.23,0.09 1.68,0.28z"/>
   <path id="4" class="fil2" d="M137.36 82.84l-0.26 0.27c-1.32,-0.08 -2.83,-0.12 -4.55,-0.12 -1.33,0 -2.62,0.04 -3.85,0.12l-0.2 -0.27 0.2 -3.15 -4.57 3.48c-0.36,0.28 -0.88,0.44 -1.56,0.5 -0.27,0.03 -0.58,0.05 -0.94,0.05 -1.75,0 -3.09,-0.53 -4.02,-1.58 -0.94,-1.05 -1.41,-2.51 -1.41,-4.36 0,-2.46 0.78,-4.2 2.33,-5.22 1.69,-1.12 5.08,-2.13 10.17,-3.02 0,-2.5 -0.66,-4.17 -1.98,-5.03 -0.8,-0.51 -1.76,-0.78 -2.87,-0.78 -1.23,0 -2.2,0.26 -2.91,0.76l-0.89 2.2 -0.31 0.16 -1.21 -0.28 -0.16 -0.33 0.12 -2.79c2.6,-1.91 4.55,-3 5.85,-3.25 0.55,-0.11 1.26,-0.17 2.15,-0.17 3.09,0 5.31,0.81 6.63,2.43 0.96,1.19 1.44,2.99 1.44,5.43 0,0.59 -0.03,1.55 -0.07,2.87 -0.08,2.21 -0.12,3.68 -0.12,4.42 0,2.37 0.04,3.89 0.12,4.54 0.08,0.65 0.26,1.07 0.55,1.24 0.29,0.18 0.98,0.27 2.09,0.3l0.23 0.26 0 1.32zm-8.66 -5.49l0 -5.81c-2.59,0.57 -4.34,1.18 -5.25,1.83 -0.9,0.66 -1.35,1.65 -1.35,2.99 0,2.13 0.94,3.21 2.8,3.21 1.6,0 2.86,-0.75 3.8,-2.22z"/>
   <path id="5" class="fil2" d="M164.82 84.61c0,3.45 -1.28,6.2 -3.86,8.24 -2.56,2.05 -5.92,3.06 -10.08,3.06 -3.25,0 -5.83,-0.6 -7.72,-1.83 -1.9,-1.21 -2.84,-2.85 -2.84,-4.91 0,-1.38 0.3,-2.43 0.92,-3.14 0.06,-0.08 0.89,-0.59 2.49,-1.55 0.77,-0.46 1.34,-0.78 1.7,-0.98 -2.17,-0.37 -3.25,-1.41 -3.25,-3.13 0,-0.91 0.31,-1.84 0.94,-2.79 0.05,-0.06 0.47,-0.37 1.27,-0.94 0.38,-0.26 1.05,-0.75 2.01,-1.44 -3.39,-1.22 -5.09,-3.49 -5.09,-6.82 0,-2.56 0.96,-4.62 2.87,-6.19 1.92,-1.56 4.48,-2.35 7.67,-2.35 3.08,0 5.5,0.69 7.25,2.06 0.99,0.05 1.62,0.06 1.9,0.05 0.78,-0.04 1.94,-0.08 3.49,-0.12l0.29 0.25 -0.26 2.43 -0.26 0.24 -3.49 0c0.2,0.76 0.31,1.53 0.31,2.31 0,3.74 -1.82,6.3 -5.46,7.67 -1.63,0.62 -3.24,0.92 -4.83,0.92 -0.54,0 -1.23,-0.04 -2.07,-0.12 -1,0.54 -1.49,1.23 -1.49,2.1 0,0.81 0.57,1.26 1.72,1.37 0.66,0.07 1.76,0.1 3.3,0.1 0.49,0 1.34,-0.03 2.55,-0.07 1.21,-0.05 2.11,-0.08 2.69,-0.08 3.55,0 5.76,0.79 6.63,2.36 0.47,0.85 0.7,1.95 0.7,3.3zm-9.69 -16.49c0,-3.96 -1.33,-5.94 -3.99,-5.94 -2.61,0 -3.91,1.71 -3.91,5.15 0,4.05 1.36,6.07 4.08,6.07 2.54,0 3.82,-1.75 3.82,-5.28zm4.3 19.18c0,-1.71 -0.61,-2.79 -1.8,-3.23 -0.51,-0.19 -1.51,-0.29 -3.02,-0.3l-4.48 -0.05c-0.5,0 -1.2,0.02 -2.07,0.05 -2.16,1.34 -3.24,2.87 -3.24,4.6 0,1.58 0.63,2.83 1.91,3.73 1.28,0.91 2.98,1.36 5.12,1.36 2.29,0 4.13,-0.55 5.51,-1.66 1.37,-1.11 2.07,-2.6 2.07,-4.5z"/>
   <path id="6" class="fil2" d="M187.78 69.75c0,0.27 -0.01,0.67 -0.02,1.21l-0.26 0.33c-2.08,0.56 -4.83,0.84 -8.26,0.84 -0.62,0 -1.54,0.02 -2.78,0.04 -1.24,0.03 -2.18,0.04 -2.81,0.04 0.09,2.31 0.81,4.21 2.15,5.73 1.4,1.62 3.22,2.43 5.47,2.43 1.51,0 3.3,-0.52 5.37,-1.56l0.58 0.68 -1.04 2.34c-2.3,1.46 -4.79,2.2 -7.48,2.2 -3.54,0 -6.29,-1 -8.25,-3 -1.96,-2 -2.94,-4.85 -2.94,-8.54 0,-4.39 1.05,-7.4 3.14,-9.01 2.9,-2.23 5.64,-3.35 8.24,-3.35 2.81,0 4.99,0.81 6.53,2.43 1.57,1.67 2.36,4.06 2.36,7.19zm-6.16 -0.61c0,-4.25 -1.32,-6.37 -3.96,-6.37 -2.78,0 -4.17,2.11 -4.17,6.32l0 0.52c0.91,0.14 2.52,0.21 4.85,0.21 1.22,0 2.3,-0.07 3.26,-0.21 0.01,-0.22 0.02,-0.38 0.02,-0.47z"/>
   <path id="7" class="fil2" d="M217.98 82.89l-0.24 0.27c-1.73,-0.12 -3.19,-0.17 -4.38,-0.17 -1.11,0 -2.71,0.05 -4.82,0.17l-0.23 -0.24c0.28,-3.51 0.42,-6.21 0.42,-8.12l0 -4.62c0,-3.84 -1.38,-5.76 -4.15,-5.76 -1.45,0 -2.58,0.5 -3.4,1.49 -0.69,0.83 -1.04,1.67 -1.04,2.52l0 4.41c0,4.08 0.11,6.58 0.31,7.51 0.13,0.54 1.04,0.83 2.74,0.87l0.23 0.24 0 1.43 -0.23 0.24c-1.34,-0.09 -3.34,-0.14 -6,-0.14 -2.82,0 -4.96,0.05 -6.44,0.17l-0.23 -0.24 0 -1.45 0.23 -0.23c1.52,-0.05 2.45,-0.16 2.81,-0.35 0.32,-0.14 0.49,-0.52 0.52,-1.13 0.11,-2.05 0.17,-4.25 0.17,-6.59l0 -3.37c0,-3.14 -0.12,-4.95 -0.36,-5.43 -0.16,-0.31 -0.5,-0.51 -1.01,-0.59 -0.2,-0.03 -0.88,-0.07 -2.06,-0.11l-0.23 -0.24 0 -1.32 0.23 -0.26c2.84,-0.27 5.82,-0.92 8.94,-1.96l0.53 0.31 -0.05 3.96 4.06 -3.4c1.03,-0.42 2.17,-0.63 3.42,-0.63 2.5,0 4.37,0.75 5.61,2.26 1.01,1.23 1.51,3.03 1.51,5.4 0,0.27 -0.03,1.36 -0.09,3.28 -0.07,1.92 -0.1,3.29 -0.1,4.11 0,2.37 0.04,3.89 0.12,4.54 0.07,0.65 0.26,1.07 0.54,1.24 0.28,0.18 1.11,0.27 2.46,0.3l0.21 0.24 0 1.39z"/>
   <path id="8" class="fil2" d="M238.79 75.58c0,2.54 -0.96,4.57 -2.87,6.12 -1.91,1.55 -4.41,2.33 -7.49,2.33 -2.19,0 -4.53,-0.48 -7.03,-1.42l-0.26 -0.36c0.14,-1.44 0.23,-2.56 0.26,-3.37l0.12 -2.97 0.23 -0.26 1.4 0 0.28 0.26c0.06,1.76 0.13,2.8 0.21,3.12 1.34,1.71 3.09,2.56 5.26,2.56 1.38,0 2.49,-0.33 3.33,-1.01 0.83,-0.68 1.25,-1.58 1.25,-2.71 0,-1.43 -0.63,-2.39 -1.89,-2.85 -0.53,-0.21 -1.6,-0.48 -3.18,-0.81 -2.6,-0.55 -4.34,-1.18 -5.21,-1.88 -1.35,-1.07 -2.02,-2.65 -2.02,-4.75 0,-2.28 0.83,-4.11 2.48,-5.5 1.73,-1.44 4.08,-2.16 7.03,-2.16 2.52,0 4.61,0.42 6.28,1.27l0.21 0.38c-0.17,0.71 -0.3,2.52 -0.4,5.45l-0.26 0.23 -1.34 0 -0.26 -0.23c-0.06,-1.14 -0.18,-2.05 -0.33,-2.76 -0.99,-1.26 -2.43,-1.9 -4.32,-1.9 -1.23,0 -2.23,0.31 -3.02,0.91 -0.78,0.59 -1.18,1.38 -1.18,2.36 0,1.3 0.67,2.17 2.01,2.61 0.59,0.19 1.76,0.46 3.49,0.81 2.64,0.51 4.38,1.11 5.23,1.79 1.33,1.05 1.99,2.63 1.99,4.74z"/>
   <path class="fil1" d="M7.4 115.4l8.99 -15.89 2.54 0 2.62 15.89 -2.06 0 -0.75 -4.57 -6.45 0 -2.54 4.57 -2.35 0zm5.83 -6.22l5.25 0 -0.61 -3.98c-0.26,-1.59 -0.41,-2.91 -0.48,-3.96 -0.36,0.91 -0.89,1.99 -1.59,3.24l-2.57 4.7z"/>
   <path id="1" class="fil1" d="M31.34 111.2l1.98 0.2c-0.49,1.44 -1.19,2.5 -2.1,3.2 -0.91,0.69 -1.94,1.04 -3.1,1.04 -1.25,0 -2.27,-0.4 -3.05,-1.21 -0.77,-0.81 -1.16,-1.94 -1.16,-3.39 0,-1.25 0.25,-2.48 0.75,-3.69 0.49,-1.21 1.21,-2.14 2.14,-2.77 0.93,-0.63 1.99,-0.94 3.18,-0.94 1.24,0 2.22,0.34 2.94,1.04 0.72,0.7 1.09,1.62 1.09,2.77l-1.94 0.14c0,-0.73 -0.21,-1.31 -0.63,-1.72 -0.42,-0.41 -0.97,-0.61 -1.65,-0.61 -0.79,0 -1.47,0.24 -2.05,0.74 -0.58,0.5 -1.03,1.25 -1.36,2.27 -0.33,1.01 -0.5,1.99 -0.5,2.92 0,0.98 0.22,1.72 0.65,2.21 0.44,0.49 0.97,0.73 1.61,0.73 0.64,0 1.25,-0.24 1.83,-0.72 0.58,-0.48 1.04,-1.22 1.37,-2.21z"/>
   <path id="2" class="fil1" d="M42.98 111.49l1.91 0.18c-0.28,0.95 -0.91,1.84 -1.9,2.7 -0.99,0.85 -2.17,1.27 -3.54,1.27 -0.85,0 -1.64,-0.19 -2.35,-0.59 -0.71,-0.39 -1.25,-0.96 -1.63,-1.71 -0.37,-0.75 -0.55,-1.61 -0.55,-2.57 0,-1.25 0.29,-2.47 0.87,-3.65 0.58,-1.18 1.34,-2.05 2.26,-2.63 0.93,-0.57 1.93,-0.85 3.01,-0.85 1.38,0 2.48,0.42 3.3,1.27 0.82,0.85 1.23,2.01 1.23,3.48 0,0.56 -0.05,1.13 -0.15,1.73l-8.51 0c-0.03,0.22 -0.04,0.42 -0.04,0.6 0,1.08 0.25,1.9 0.75,2.47 0.49,0.57 1.1,0.85 1.82,0.85 0.67,0 1.34,-0.21 1.99,-0.65 0.66,-0.44 1.17,-1.07 1.53,-1.9zm-5.73 -2.88l6.49 0c0,-0.2 0.01,-0.35 0.01,-0.44 0,-0.97 -0.25,-1.72 -0.74,-2.24 -0.5,-0.53 -1.13,-0.78 -1.91,-0.78 -0.84,0 -1.61,0.28 -2.3,0.86 -0.69,0.57 -1.21,1.44 -1.55,2.6z"/>
   <path id="3" class="fil1" d="M47.04 111.45l1.97 -0.11c0,0.56 0.09,1.04 0.26,1.44 0.17,0.39 0.49,0.72 0.95,0.97 0.47,0.26 1.01,0.38 1.62,0.38 0.86,0 1.51,-0.17 1.94,-0.52 0.43,-0.34 0.65,-0.75 0.65,-1.22 0,-0.34 -0.13,-0.66 -0.39,-0.96 -0.27,-0.31 -0.91,-0.68 -1.94,-1.13 -1.03,-0.44 -1.68,-0.75 -1.97,-0.93 -0.49,-0.29 -0.86,-0.64 -1.1,-1.04 -0.25,-0.4 -0.37,-0.86 -0.37,-1.38 0,-0.91 0.35,-1.69 1.08,-2.34 0.72,-0.65 1.72,-0.97 3.02,-0.97 1.44,0 2.54,0.33 3.29,1 0.75,0.66 1.14,1.54 1.17,2.64l-1.91 0.13c-0.03,-0.7 -0.27,-1.25 -0.73,-1.65 -0.46,-0.41 -1.11,-0.61 -1.95,-0.61 -0.68,0 -1.2,0.15 -1.57,0.46 -0.38,0.32 -0.56,0.65 -0.56,1.01 0,0.36 0.16,0.69 0.48,0.96 0.22,0.19 0.77,0.48 1.67,0.86 1.49,0.65 2.43,1.16 2.82,1.54 0.62,0.59 0.93,1.32 0.93,2.18 0,0.57 -0.17,1.13 -0.52,1.68 -0.35,0.54 -0.88,0.98 -1.6,1.31 -0.72,0.33 -1.56,0.49 -2.54,0.49 -1.32,0 -2.45,-0.33 -3.38,-0.99 -0.92,-0.65 -1.37,-1.72 -1.32,-3.2z"/>
   <path id="4" class="fil1" d="M58.13 111.45l1.98 -0.11c0,0.56 0.08,1.04 0.26,1.44 0.17,0.39 0.48,0.72 0.95,0.97 0.46,0.26 1,0.38 1.62,0.38 0.86,0 1.51,-0.17 1.93,-0.52 0.44,-0.34 0.65,-0.75 0.65,-1.22 0,-0.34 -0.13,-0.66 -0.38,-0.96 -0.27,-0.31 -0.92,-0.68 -1.94,-1.13 -1.03,-0.44 -1.69,-0.75 -1.98,-0.93 -0.48,-0.29 -0.85,-0.64 -1.1,-1.04 -0.25,-0.4 -0.37,-0.86 -0.37,-1.38 0,-0.91 0.36,-1.69 1.08,-2.34 0.72,-0.65 1.73,-0.97 3.03,-0.97 1.44,0 2.53,0.33 3.29,1 0.75,0.66 1.14,1.54 1.17,2.64l-1.91 0.13c-0.03,-0.7 -0.27,-1.25 -0.73,-1.65 -0.46,-0.41 -1.11,-0.61 -1.95,-0.61 -0.68,0 -1.2,0.15 -1.58,0.46 -0.37,0.32 -0.56,0.65 -0.56,1.01 0,0.36 0.17,0.69 0.49,0.96 0.21,0.19 0.77,0.48 1.66,0.86 1.5,0.65 2.44,1.16 2.82,1.54 0.63,0.59 0.94,1.32 0.94,2.18 0,0.57 -0.18,1.13 -0.53,1.68 -0.35,0.54 -0.88,0.98 -1.6,1.31 -0.71,0.33 -1.56,0.49 -2.53,0.49 -1.32,0 -2.45,-0.33 -3.38,-0.99 -0.93,-0.65 -1.37,-1.72 -1.33,-3.2z"/>
   <path id="5" class="fil1" d="M69.38 111.02c0,-2.24 0.67,-4.1 1.99,-5.57 1.09,-1.21 2.51,-1.81 4.29,-1.81 1.38,0 2.5,0.43 3.35,1.29 0.84,0.87 1.27,2.04 1.27,3.51 0,1.32 -0.27,2.55 -0.8,3.68 -0.54,1.14 -1.3,2.01 -2.28,2.61 -0.99,0.61 -2.02,0.91 -3.12,0.91 -0.89,0 -1.7,-0.19 -2.44,-0.57 -0.73,-0.38 -1.29,-0.93 -1.68,-1.63 -0.39,-0.69 -0.58,-1.5 -0.58,-2.42zm1.96 -0.19c0,1.08 0.26,1.91 0.78,2.46 0.52,0.56 1.19,0.84 1.99,0.84 0.43,0 0.84,-0.08 1.25,-0.25 0.42,-0.17 0.8,-0.43 1.16,-0.78 0.36,-0.34 0.66,-0.74 0.91,-1.18 0.25,-0.45 0.45,-0.92 0.6,-1.44 0.23,-0.71 0.34,-1.4 0.34,-2.05 0,-1.04 -0.26,-1.85 -0.79,-2.42 -0.53,-0.58 -1.19,-0.86 -1.99,-0.86 -0.61,0 -1.18,0.14 -1.68,0.44 -0.51,0.29 -0.97,0.71 -1.38,1.28 -0.41,0.56 -0.71,1.22 -0.91,1.96 -0.19,0.75 -0.28,1.42 -0.28,2zm3.19 -8.35l2.04 -2.97 2.47 0 -2.89 2.97 -1.62 0z"/>
   <path id="6" class="fil1" d="M81.39 115.4l2.4 -11.52 1.75 0 -0.5 2.36c0.6,-0.89 1.18,-1.54 1.75,-1.97 0.57,-0.42 1.15,-0.63 1.74,-0.63 0.39,0 0.87,0.14 1.44,0.42l-0.8 1.82c-0.34,-0.25 -0.71,-0.38 -1.12,-0.38 -0.68,0 -1.39,0.39 -2.12,1.15 -0.72,0.77 -1.29,2.14 -1.71,4.13l-0.96 4.62 -1.87 0z"/>
   <path id="7" class="fil1" d="M91.6 101.73l0.47 -2.22 1.95 0 -0.47 2.22 -1.95 0zm-2.86 13.67l2.41 -11.52 1.95 0 -2.41 11.52 -1.95 0z"/>
   <path id="8" class="fil1" d="M94.05 111.02c0,-2.24 0.66,-4.1 1.98,-5.57 1.09,-1.21 2.52,-1.81 4.29,-1.81 1.38,0 2.5,0.43 3.35,1.29 0.85,0.87 1.27,2.04 1.27,3.51 0,1.32 -0.26,2.55 -0.8,3.68 -0.53,1.14 -1.3,2.01 -2.28,2.61 -0.99,0.61 -2.02,0.91 -3.11,0.91 -0.9,0 -1.71,-0.19 -2.44,-0.57 -0.74,-0.38 -1.3,-0.93 -1.68,-1.63 -0.39,-0.69 -0.58,-1.5 -0.58,-2.42zm1.95 -0.19c0,1.08 0.26,1.91 0.78,2.46 0.52,0.56 1.19,0.84 2,0.84 0.42,0 0.84,-0.08 1.25,-0.25 0.41,-0.17 0.8,-0.43 1.15,-0.78 0.36,-0.34 0.66,-0.74 0.91,-1.18 0.25,-0.45 0.45,-0.92 0.61,-1.44 0.22,-0.71 0.33,-1.4 0.33,-2.05 0,-1.04 -0.26,-1.85 -0.78,-2.42 -0.53,-0.58 -1.2,-0.86 -1.99,-0.86 -0.62,0 -1.18,0.14 -1.69,0.44 -0.51,0.29 -0.97,0.71 -1.38,1.28 -0.41,0.56 -0.71,1.22 -0.9,1.96 -0.2,0.75 -0.29,1.42 -0.29,2z"/>
   <path id="9" class="fil1" d="M106.23 111.45l1.98 -0.11c0,0.56 0.08,1.04 0.26,1.44 0.17,0.39 0.48,0.72 0.95,0.97 0.46,0.26 1,0.38 1.62,0.38 0.86,0 1.51,-0.17 1.94,-0.52 0.43,-0.34 0.64,-0.75 0.64,-1.22 0,-0.34 -0.13,-0.66 -0.38,-0.96 -0.27,-0.31 -0.92,-0.68 -1.94,-1.13 -1.03,-0.44 -1.69,-0.75 -1.97,-0.93 -0.49,-0.29 -0.86,-0.64 -1.11,-1.04 -0.25,-0.4 -0.37,-0.86 -0.37,-1.38 0,-0.91 0.36,-1.69 1.08,-2.34 0.72,-0.65 1.73,-0.97 3.03,-0.97 1.44,0 2.54,0.33 3.29,1 0.75,0.66 1.14,1.54 1.17,2.64l-1.91 0.13c-0.03,-0.7 -0.27,-1.25 -0.73,-1.65 -0.46,-0.41 -1.11,-0.61 -1.95,-0.61 -0.68,0 -1.2,0.15 -1.58,0.46 -0.37,0.32 -0.56,0.65 -0.56,1.01 0,0.36 0.17,0.69 0.49,0.96 0.21,0.19 0.77,0.48 1.66,0.86 1.5,0.65 2.44,1.16 2.83,1.54 0.62,0.59 0.93,1.32 0.93,2.18 0,0.57 -0.18,1.13 -0.53,1.68 -0.35,0.54 -0.88,0.98 -1.6,1.31 -0.71,0.33 -1.56,0.49 -2.53,0.49 -1.32,0 -2.45,-0.33 -3.38,-0.99 -0.93,-0.65 -1.37,-1.72 -1.33,-3.2z"/>
   <path id="10" class="fil1" d="M122.38 119.81l3.33 -15.93 1.82 0 -0.34 1.61c0.67,-0.7 1.28,-1.18 1.81,-1.45 0.53,-0.27 1.09,-0.4 1.68,-0.4 1.1,0 2.01,0.4 2.74,1.19 0.72,0.8 1.08,1.94 1.08,3.43 0,1.19 -0.2,2.28 -0.6,3.27 -0.39,0.98 -0.88,1.77 -1.46,2.37 -0.58,0.6 -1.17,1.04 -1.76,1.32 -0.59,0.28 -1.21,0.42 -1.83,0.42 -1.38,0 -2.45,-0.7 -3.21,-2.11l-1.31 6.28 -1.95 0zm3.87 -9.11c0,0.86 0.06,1.45 0.18,1.78 0.19,0.47 0.49,0.85 0.9,1.13 0.41,0.29 0.89,0.43 1.43,0.43 1.13,0 2.05,-0.63 2.75,-1.9 0.69,-1.26 1.04,-2.56 1.04,-3.88 0,-0.97 -0.24,-1.72 -0.7,-2.25 -0.47,-0.53 -1.05,-0.8 -1.75,-0.8 -0.5,0 -0.96,0.13 -1.39,0.4 -0.43,0.26 -0.83,0.66 -1.19,1.18 -0.37,0.53 -0.67,1.17 -0.91,1.93 -0.24,0.76 -0.36,1.42 -0.36,1.98z"/>
   <path id="11" class="fil1" d="M143.4 113.97c-0.68,0.58 -1.33,1.01 -1.96,1.27 -0.62,0.27 -1.3,0.4 -2.02,0.4 -1.06,0 -1.91,-0.31 -2.56,-0.93 -0.65,-0.63 -0.98,-1.42 -0.98,-2.4 0,-0.64 0.15,-1.21 0.44,-1.7 0.29,-0.49 0.68,-0.89 1.16,-1.19 0.49,-0.3 1.08,-0.51 1.78,-0.64 0.45,-0.09 1.29,-0.16 2.52,-0.21 1.24,-0.05 2.12,-0.18 2.66,-0.39 0.15,-0.53 0.23,-0.98 0.23,-1.33 0,-0.46 -0.17,-0.81 -0.5,-1.08 -0.46,-0.36 -1.12,-0.54 -2.01,-0.54 -0.82,0 -1.5,0.18 -2.03,0.55 -0.52,0.37 -0.9,0.89 -1.14,1.56l-1.98 -0.18c0.41,-1.13 1.05,-2.01 1.92,-2.61 0.88,-0.61 1.98,-0.91 3.32,-0.91 1.42,0 2.54,0.34 3.38,1.01 0.63,0.51 0.95,1.17 0.95,1.97 0,0.62 -0.09,1.33 -0.27,2.14l-0.63 2.86c-0.2,0.91 -0.3,1.65 -0.3,2.22 0,0.36 0.08,0.88 0.24,1.56l-1.99 0c-0.1,-0.38 -0.18,-0.85 -0.23,-1.43zm0.74 -4.41c-0.28,0.11 -0.57,0.19 -0.89,0.25 -0.32,0.06 -0.84,0.12 -1.58,0.18 -1.14,0.1 -1.95,0.23 -2.42,0.39 -0.47,0.15 -0.82,0.4 -1.06,0.74 -0.24,0.34 -0.36,0.72 -0.36,1.13 0,0.55 0.19,1 0.57,1.35 0.38,0.36 0.92,0.53 1.62,0.53 0.65,0 1.28,-0.17 1.88,-0.51 0.6,-0.35 1.07,-0.82 1.42,-1.44 0.35,-0.61 0.62,-1.48 0.82,-2.62z"/>
   <path id="12" class="fil1" d="M148 115.4l2.4 -11.52 1.75 0 -0.5 2.36c0.6,-0.89 1.18,-1.54 1.75,-1.97 0.57,-0.42 1.15,-0.63 1.74,-0.63 0.39,0 0.87,0.14 1.44,0.42l-0.8 1.82c-0.34,-0.25 -0.71,-0.38 -1.12,-0.38 -0.68,0 -1.39,0.39 -2.12,1.15 -0.72,0.77 -1.29,2.14 -1.71,4.13l-0.96 4.62 -1.87 0z"/>
   <path id="13" class="fil1" d="M163.14 113.97c-0.68,0.58 -1.34,1.01 -1.96,1.27 -0.63,0.27 -1.31,0.4 -2.02,0.4 -1.06,0 -1.92,-0.31 -2.57,-0.93 -0.65,-0.63 -0.98,-1.42 -0.98,-2.4 0,-0.64 0.15,-1.21 0.44,-1.7 0.3,-0.49 0.68,-0.89 1.16,-1.19 0.49,-0.3 1.08,-0.51 1.78,-0.64 0.45,-0.09 1.29,-0.16 2.52,-0.21 1.24,-0.05 2.13,-0.18 2.66,-0.39 0.15,-0.53 0.23,-0.98 0.23,-1.33 0,-0.46 -0.17,-0.81 -0.5,-1.08 -0.46,-0.36 -1.12,-0.54 -2,-0.54 -0.83,0 -1.5,0.18 -2.03,0.55 -0.53,0.37 -0.91,0.89 -1.15,1.56l-1.98 -0.18c0.41,-1.13 1.05,-2.01 1.92,-2.61 0.88,-0.61 1.99,-0.91 3.32,-0.91 1.42,0 2.55,0.34 3.38,1.01 0.63,0.51 0.95,1.17 0.95,1.97 0,0.62 -0.09,1.33 -0.27,2.14l-0.63 2.86c-0.2,0.91 -0.3,1.65 -0.3,2.22 0,0.36 0.08,0.88 0.24,1.56l-1.98 0c-0.11,-0.38 -0.19,-0.85 -0.23,-1.43zm0.73 -4.41c-0.28,0.11 -0.57,0.19 -0.89,0.25 -0.31,0.06 -0.84,0.12 -1.58,0.18 -1.14,0.1 -1.94,0.23 -2.41,0.39 -0.47,0.15 -0.83,0.4 -1.07,0.74 -0.24,0.34 -0.35,0.72 -0.35,1.13 0,0.55 0.18,1 0.57,1.35 0.37,0.36 0.91,0.53 1.62,0.53 0.65,0 1.27,-0.17 1.87,-0.51 0.6,-0.35 1.07,-0.82 1.42,-1.44 0.35,-0.61 0.63,-1.48 0.82,-2.62z"/>
   <path id="14" class="fil1" d="M174.27 115.4l3.32 -15.89 2.64 0 1.48 10.29c0.19,1.37 0.31,2.66 0.37,3.89 0.44,-1.04 1.17,-2.49 2.21,-4.33l5.56 -9.85 2.66 0 -3.36 15.89 -2.09 0 1.69 -7.73c0.38,-1.78 0.93,-3.79 1.64,-6.01 -0.48,1.03 -1.05,2.14 -1.7,3.34l-5.9 10.4 -2.05 0 -1.46 -10.21c-0.14,-0.93 -0.23,-2.01 -0.29,-3.24 -0.19,1.41 -0.37,2.53 -0.55,3.34l-2.1 10.11 -2.07 0z"/>
   <path id="15" class="fil1" d="M192.72 111.02c0,-2.24 0.66,-4.1 1.98,-5.57 1.09,-1.21 2.52,-1.81 4.29,-1.81 1.38,0 2.5,0.43 3.35,1.29 0.85,0.87 1.27,2.04 1.27,3.51 0,1.32 -0.26,2.55 -0.8,3.68 -0.53,1.14 -1.29,2.01 -2.28,2.61 -0.98,0.61 -2.02,0.91 -3.11,0.91 -0.9,0 -1.71,-0.19 -2.44,-0.57 -0.74,-0.38 -1.3,-0.93 -1.68,-1.63 -0.39,-0.69 -0.58,-1.5 -0.58,-2.42zm1.95 -0.19c0,1.08 0.26,1.91 0.78,2.46 0.53,0.56 1.19,0.84 2,0.84 0.42,0 0.84,-0.08 1.25,-0.25 0.41,-0.17 0.8,-0.43 1.15,-0.78 0.36,-0.34 0.66,-0.74 0.91,-1.18 0.25,-0.45 0.46,-0.92 0.61,-1.44 0.22,-0.71 0.34,-1.4 0.34,-2.05 0,-1.04 -0.27,-1.85 -0.79,-2.42 -0.53,-0.58 -1.19,-0.86 -1.99,-0.86 -0.62,0 -1.18,0.14 -1.69,0.44 -0.51,0.29 -0.97,0.71 -1.38,1.28 -0.41,0.56 -0.71,1.22 -0.9,1.96 -0.19,0.75 -0.29,1.42 -0.29,2zm3.2 -8.35l2.04 -2.97 2.46 0 -2.88 2.97 -1.62 0z"/>
   <path id="16" class="fil1" d="M207.62 115.4l-1.89 -11.52 1.9 0 0.99 6.34c0.11,0.7 0.25,1.83 0.4,3.4 0.38,-0.82 0.86,-1.76 1.45,-2.81l3.84 -6.93 2.08 0 -6.59 11.52 -2.18 0z"/>
   <path id="17" class="fil1" d="M224.29 111.49l1.9 0.18c-0.27,0.95 -0.91,1.84 -1.89,2.7 -0.99,0.85 -2.17,1.27 -3.54,1.27 -0.85,0 -1.64,-0.19 -2.35,-0.59 -0.71,-0.39 -1.26,-0.96 -1.63,-1.71 -0.37,-0.75 -0.56,-1.61 -0.56,-2.57 0,-1.25 0.29,-2.47 0.88,-3.65 0.58,-1.18 1.33,-2.05 2.26,-2.63 0.93,-0.57 1.93,-0.85 3.01,-0.85 1.38,0 2.47,0.42 3.3,1.27 0.82,0.85 1.23,2.01 1.23,3.48 0,0.56 -0.05,1.13 -0.15,1.73l-8.51 0c-0.03,0.22 -0.04,0.42 -0.04,0.6 0,1.08 0.25,1.9 0.74,2.47 0.5,0.57 1.11,0.85 1.83,0.85 0.67,0 1.34,-0.21 1.99,-0.65 0.65,-0.44 1.16,-1.07 1.53,-1.9zm-5.73 -2.88l6.48 0c0.01,-0.2 0.02,-0.35 0.02,-0.44 0,-0.97 -0.25,-1.72 -0.74,-2.24 -0.5,-0.53 -1.13,-0.78 -1.91,-0.78 -0.84,0 -1.61,0.28 -2.3,0.86 -0.7,0.57 -1.21,1.44 -1.55,2.6z"/>
   <path id="18" class="fil1" d="M230.98 101.73l0.47 -2.22 1.95 0 -0.47 2.22 -1.95 0zm-2.86 13.67l2.41 -11.52 1.95 0 -2.41 11.52 -1.95 0z"/>
   <path id="19" class="fil1" d="M233.27 111.45l1.98 -0.11c0,0.56 0.08,1.04 0.26,1.44 0.17,0.39 0.49,0.72 0.95,0.97 0.46,0.26 1,0.38 1.62,0.38 0.86,0 1.51,-0.17 1.94,-0.52 0.43,-0.34 0.64,-0.75 0.64,-1.22 0,-0.34 -0.13,-0.66 -0.38,-0.96 -0.27,-0.31 -0.91,-0.68 -1.94,-1.13 -1.03,-0.44 -1.69,-0.75 -1.97,-0.93 -0.49,-0.29 -0.86,-0.64 -1.11,-1.04 -0.24,-0.4 -0.37,-0.86 -0.37,-1.38 0,-0.91 0.36,-1.69 1.08,-2.34 0.73,-0.65 1.73,-0.97 3.03,-0.97 1.44,0 2.54,0.33 3.29,1 0.75,0.66 1.14,1.54 1.17,2.64l-1.91 0.13c-0.03,-0.7 -0.27,-1.25 -0.73,-1.65 -0.46,-0.41 -1.11,-0.61 -1.95,-0.61 -0.68,0 -1.2,0.15 -1.58,0.46 -0.37,0.32 -0.55,0.65 -0.55,1.01 0,0.36 0.16,0.69 0.48,0.96 0.21,0.19 0.77,0.48 1.66,0.86 1.5,0.65 2.44,1.16 2.83,1.54 0.62,0.59 0.93,1.32 0.93,2.18 0,0.57 -0.18,1.13 -0.53,1.68 -0.34,0.54 -0.88,0.98 -1.59,1.31 -0.72,0.33 -1.57,0.49 -2.54,0.49 -1.32,0 -2.45,-0.33 -3.38,-0.99 -0.93,-0.65 -1.37,-1.72 -1.33,-3.2z"/>
  </g>
 </g>
</svg>
